<?xml version="1.0" encoding="utf-8"?>
<!-- Generator: Adobe Illustrator 18.1.1, SVG Export Plug-In . SVG Version: 6.00 Build 0)  -->
<svg version="1.1" id="Layer_1" xmlns="http://www.w3.org/2000/svg" xmlns:xlink="http://www.w3.org/1999/xlink" x="0px" y="0px"
	 viewBox="2 1.5 608 118.2" enable-background="new 2 1.5 608 118.2" xml:space="preserve">
<g>
	<path fill="#C40000" d="M31.5,16.9l-8.6,40.4c-1.3,6.2-1.5,10.8-0.7,13.7c1.2,5.1,5.7,7.6,13.4,7.6c7.7,0,13.2-2.5,16.6-7.6
		c2.1-2.9,3.8-7.4,5.1-13.7L69.2,1.5h19.3L76.6,57.3c-2.1,9.6-5.2,17.2-9.3,22.5c-7.7,9.9-19.4,14.8-35.1,14.8
		c-15.7,0-25.3-4.9-28.9-14.8c-1.8-5.4-1.7-12.9,0.3-22.5L15.5,1.5C15.5,1.5,31.5,16.9,31.5,16.9z M146.6,57.8
		c-2.5,11.8-7.1,20.8-13.7,27c-6.6,6.2-14.1,9.3-22.5,9.3c-5.3,0-9.5-1.3-12.4-4c-1.6-1.5-3.1-3.6-4.3-6.5l-7.5,35H68.8l19.9-93.5
		h16.8l-2.1,9.9c2.5-2.9,5-5.2,7.5-6.9c4.5-3,9.5-4.5,14.8-4.5c7.8,0,13.9,2.9,18.1,8.7C148.1,38.1,149,46.6,146.6,57.8L146.6,57.8z
		 M117.5,39c-6.4,0-11.4,3-15,9c-1.9,3.2-3.4,7.3-4.4,12.2c-1.6,7.8-0.7,13.3,2.7,16.4c2.1,1.8,4.8,2.8,8.2,2.8
		c4.9,0,9-1.9,12.4-5.7c3.4-3.8,5.7-8.8,7-15.1c1.1-5.2,0.9-9.7-0.6-13.7C126.2,41,122.8,39,117.5,39L117.5,39z M215.3,57.8
		c-2.5,11.8-7.1,20.8-13.7,27c-6.6,6.2-14.1,9.3-22.5,9.3c-5.3,0-9.5-1.3-12.4-4c-1.6-1.5-3.1-3.6-4.3-6.5l-7.5,35h-17.4l19.9-93.5
		h16.8l-2.1,9.9c2.5-2.9,5-5.2,7.5-6.9c4.5-3,9.5-4.5,14.8-4.5c7.8,0,13.9,2.9,18.1,8.7C216.7,38.1,217.7,46.6,215.3,57.8
		L215.3,57.8z M186.1,39c-6.4,0-11.4,3-15,9c-1.9,3.2-3.4,7.3-4.4,12.2c-1.6,7.8-0.7,13.3,2.7,16.4c2.1,1.8,4.8,2.8,8.2,2.8
		c4.9,0,9-1.9,12.4-5.7c3.4-3.8,5.7-8.8,7-15.1c1.1-5.2,0.9-9.7-0.6-13.7C194.9,41,191.4,39,186.1,39L186.1,39z M281.9,36.4
		c1.8,4,2.5,8.6,2.2,13.9c-0.2,3.1-0.9,7.5-2.2,13.3h-45.9c-1.2,6.7-0.1,11.4,3.3,14.2c2,1.7,4.8,2.5,8.2,2.5c3.6,0,6.8-1,9.5-3.1
		c1.4-1.1,2.9-2.6,4.2-4.6h17.9c-1.3,4-4.2,8-8.8,12.1c-7.1,6.5-15.9,9.8-26.2,9.8c-8.5,0-15.5-2.7-20.8-8.3
		c-5.4-5.5-6.7-14.4-4.1-26.8c2.5-11.6,7.3-20.5,14.5-26.7c7.2-6.2,15.5-9.3,24.9-9.3c5.6,0,10.4,1,14.4,3.1
		C277,28.6,280,31.9,281.9,36.4L281.9,36.4z M238.8,52h27.3c0.7-4.6,0-8.2-2-10.6c-2-2.4-4.9-3.6-8.6-3.6c-4.1,0-7.5,1.3-10.3,3.8
		C242.4,44.2,240.3,47.6,238.8,52L238.8,52z M334.6,23.7l-3.8,18c-1.1-0.1-2-0.2-2.9-0.2c-0.9,0-1.6-0.1-2.1-0.1
		c-7.1,0-12.3,2.3-15.7,6.9c-1.9,2.6-3.4,6.6-4.6,11.9l-6.8,32.1h-17.7l14.2-67.1h16.7l-2.5,11.7c3.6-4.5,6.6-7.5,9-9.2
		c3.9-2.7,8.5-4.1,13.7-4.1c0.3,0,0.6,0,0.8,0C333.4,23.6,333.9,23.6,334.6,23.7L334.6,23.7z M408.4,17.6h-48l-4.1,19.3h44.1
		L397,52.6h-44.1L348,75.9h50.2l-3.4,16.3H326l19.3-90.8h66.6L408.4,17.6L408.4,17.6z M478.9,16.9l-16,75.4h-17.1l2-9.3
		c-3.4,4-6.8,6.9-10.4,8.7c-3.6,1.8-7.8,2.7-12.5,2.7c-7.8,0-13.8-3.2-17.8-9.5c-4-6.3-5-14.5-2.9-24.4c2.5-11.5,7-20.5,13.7-27
		c6.7-6.6,14.4-9.9,23.2-9.9c4.1,0,7.5,0.9,10.3,2.7c2.8,1.8,4.8,4.3,6.1,7.4l6.8-32L478.9,16.9L478.9,16.9z M452.5,59.7
		c1.7-8.2,0.9-14.1-2.5-17.6c-2.1-2.1-4.8-3.2-8.2-3.2c-5.1,0-9.3,1.9-12.5,5.8c-3.2,3.9-5.5,8.7-6.7,14.4
		c-1.3,6.2-1.2,11.2,0.5,14.9c1.6,3.7,4.9,5.6,9.9,5.6c5,0,9.1-1.8,12.5-5.5C449,70.3,451.3,65.6,452.5,59.7L452.5,59.7z M520,25.1
		c3.9,1.8,6.7,5,8.3,9.7l2-9.7h17.1l-13.5,63.7c-1.8,8.7-4.6,15.2-8.5,19.6c-6.6,7.6-17,11.3-31.2,11.3c-8.6,0-15.2-1.7-19.9-5
		c-4.7-3.4-6.6-8.4-5.8-15.1h19.1c0.1,2.1,0.6,3.5,1.5,4.4c1.6,1.6,4.6,2.4,9.1,2.4c6.3,0,11-2.1,14-6.3c2-2.7,3.6-7.3,5-13.7
		l0.9-4.3c-2.3,2.9-4.6,5-6.8,6.5c-4.1,2.7-8.9,4-14.5,4c-8.6,0-14.9-3-18.7-9.1c-3.9-6.1-4.7-14.3-2.5-24.6
		c2.1-10,6.3-18.4,12.8-25.2c6.4-6.8,14.2-10.2,23.3-10.2C515,23.5,517.8,24.1,520,25.1L520,25.1z M523.2,58.4
		c1.4-6.4,1-11.2-0.9-14.5c-2-3.3-5.2-5-9.7-5c-6.2,0-11,2.9-14.6,8.7c-1.9,3.1-3.3,6.9-4.3,11.4c-0.8,3.9-0.9,7.4-0.2,10.4
		c1.1,5.7,4.8,8.5,11,8.5c4.1,0,7.9-1.5,11.4-4.6C519.3,70.1,521.7,65.2,523.2,58.4L523.2,58.4z M607.7,36.4c1.8,4,2.5,8.6,2.2,13.9
		c-0.2,3.1-0.9,7.5-2.2,13.3h-45.9c-1.2,6.7-0.1,11.4,3.3,14.2c2.1,1.7,4.8,2.5,8.2,2.5c3.6,0,6.8-1,9.5-3.1
		c1.4-1.1,2.9-2.6,4.3-4.6h17.9c-1.3,4-4.2,8-8.8,12.1c-7.1,6.5-15.9,9.8-26.2,9.8c-8.5,0-15.5-2.7-20.8-8.3
		c-5.4-5.5-6.7-14.4-4.1-26.8c2.5-11.6,7.3-20.5,14.5-26.7c7.2-6.2,15.5-9.3,24.9-9.3c5.6,0,10.4,1,14.4,3.1
		C602.8,28.6,605.8,31.9,607.7,36.4L607.7,36.4z M564.6,52h27.3c0.7-4.6,0-8.2-2-10.6c-2-2.4-4.9-3.6-8.6-3.6
		c-4.1,0-7.5,1.3-10.2,3.8C568.2,44.2,566.1,47.6,564.6,52z"/>
</g>
</svg>
